<?xml version="1.0" encoding="utf-8"?>
<!-- Generator: Adobe Illustrator 15.1.0, SVG Export Plug-In . SVG Version: 6.00 Build 0)  -->
<!DOCTYPE svg PUBLIC "-//W3C//DTD SVG 1.1//EN" "http://www.w3.org/Graphics/SVG/1.1/DTD/svg11.dtd">
<svg version="1.1" id="Tryb_izolacji" xmlns="http://www.w3.org/2000/svg" xmlns:xlink="http://www.w3.org/1999/xlink" x="0px"
	 y="0px" width="136px" height="26px" viewBox="0 0 136 26" enable-background="new 0 0 136 26" xml:space="preserve">
<g>
	<path d="M3.582,14.772v10.004c0,0.28-0.239,0.53-0.508,0.53H0.627c-0.273,0-0.512-0.25-0.512-0.53V1.258
		c0-0.283,0.238-0.529,0.512-0.529h14.605c0.273,0,0.509,0.247,0.509,0.529v2.105c0,0.281-0.235,0.528-0.509,0.528H3.582v7.72h9.002
		c0.27,0,0.509,0.247,0.509,0.529v2.106c0,0.282-0.24,0.526-0.509,0.526H3.582z"/>
	<path d="M31.195,7.576l-6.689,17.2c-0.135,0.318-0.408,0.493-0.712,0.493h-2.787c-0.235,0-0.407-0.245-0.306-0.493L30.519,0.94
		c0.136-0.282,0.374-0.457,0.677-0.457c0.273,0,0.545,0.175,0.646,0.457l9.853,23.836c0.104,0.248-0.07,0.493-0.307,0.493h-2.786
		c-0.303,0-0.575-0.175-0.71-0.493L31.195,7.576z"/>
	<path d="M57.896,9.226l-4.926,15.587c-0.102,0.282-0.373,0.494-0.678,0.494h-2.754c-0.239,0-0.441-0.25-0.34-0.494l7.779-24.014
		c0.068-0.21,0.239-0.35,0.442-0.35c0.237,0,0.438,0.14,0.511,0.35l7.232,17.555L72.4,0.799c0.068-0.21,0.271-0.35,0.477-0.35
		c0.236,0,0.404,0.14,0.474,0.35l7.778,24.014c0.102,0.244-0.102,0.494-0.342,0.494h-2.75c-0.306,0-0.576-0.212-0.678-0.494
		L72.431,9.226l-6.655,15.973c-0.1,0.245-0.339,0.421-0.611,0.421c-0.27,0-0.507-0.177-0.612-0.421L57.896,9.226z"/>
	<path d="M94.275,14.772v7.372h11.65c0.274,0,0.506,0.247,0.506,0.526v2.105c0,0.28-0.232,0.53-0.506,0.53H91.32
		c-0.27,0-0.511-0.25-0.511-0.53V1.258c0-0.283,0.241-0.529,0.511-0.529h14.605c0.274,0,0.506,0.247,0.506,0.529v2.105
		c0,0.281-0.232,0.528-0.506,0.528h-11.65v7.72h9c0.271,0,0.51,0.247,0.51,0.529v2.106c0,0.282-0.238,0.526-0.51,0.526H94.275z"/>
	<path d="M127.902,16.527c-0.273,0-0.51-0.245-0.51-0.527v-2.105c0-0.28,0.236-0.527,0.51-0.527h7.473
		c0.271,0,0.509,0.247,0.509,0.527v7.757c0,0.353-0.137,0.669-0.375,0.878c-2.001,1.895-4.585,3.09-8.15,3.09
		c-9.068,0-11.754-7.371-11.754-12.637c0-5.125,2.686-12.604,11.754-12.604c3.769,0,5.945,1.02,7.914,3.088
		c0.203,0.21,0.168,0.562,0,0.774l-1.494,1.544c-0.17,0.21-0.513,0.21-0.713,0.035c-1.258-1.195-3.43-2.248-5.707-2.248
		c-7.167,0-8.22,7.057-8.22,9.41c0,2.35,1.053,9.371,8.22,9.371c1.902,0,3.704-0.561,5.026-1.579v-4.248H127.902z"/>
</g>
</svg>
